<?xml version="1.0" standalone="no"?>
<!DOCTYPE svg PUBLIC "-//W3C//DTD SVG 20010904//EN"
 "http://www.w3.org/TR/2001/REC-SVG-20010904/DTD/svg10.dtd">
<svg version="1.0" xmlns="http://www.w3.org/2000/svg"
 width="720.000000pt" height="720.000000pt" viewBox="0 0 720.000000 720.000000"
 preserveAspectRatio="xMidYMid meet">
<metadata>
Created by potrace 1.14, written by Peter Selinger 2001-2017
</metadata>
<g transform="translate(0.000000,720.000000) scale(0.100000,-0.100000)"
fill="#000000" stroke="none">
<path d="M5960 4380 c0 -3 -17 -5 -38 -6 -20 0 -68 -4 -107 -8 -38 -4 -92 -9
-120 -11 -27 -2 -64 -7 -82 -10 -32 -6 -32 -6 -27 -58 3 -29 5 -60 5 -70 0
-11 5 -17 13 -14 7 3 18 2 24 -2 9 -5 21 -93 25 -181 1 -14 6 -28 12 -32 6 -5
5 -8 -3 -8 -7 0 -10 -5 -6 -12 4 -6 9 -42 11 -80 3 -58 1 -69 -14 -76 -14 -5
-18 -19 -19 -54 0 -27 3 -48 8 -48 4 0 7 -3 7 -7 -4 -24 4 -30 34 -28 121 12
178 17 222 20 28 2 51 4 53 5 1 2 8 3 14 4 15 1 17 33 5 59 -5 10 -4 17 3 17
7 0 8 6 1 18 -9 17 -11 24 -11 40 0 4 -12 8 -27 8 -22 -1 -27 4 -30 29 -1 17
-5 45 -7 62 -5 35 4 45 38 47 25 2 66 -40 67 -69 0 -11 3 -38 5 -60 4 -34 10
-92 13 -133 1 -11 15 -12 64 -8 34 3 94 9 132 12 39 3 71 7 73 9 7 7 9 55 2
55 -4 0 -7 16 -5 34 2 41 -4 52 -29 51 -15 0 -19 8 -21 35 -4 76 -34 120 -82
120 -14 0 -12 5 9 28 38 39 56 91 52 145 -7 93 -51 151 -129 171 -34 9 -135
13 -135 6z m-28 -149 c3 10 12 6 29 -13 30 -32 31 -94 3 -115 -23 -17 -74 -17
-75 0 -6 92 -4 122 11 128 8 4 18 2 21 -3 4 -6 8 -5 11 3z"/>
<path d="M5227 4323 c-2 -1 -21 -5 -42 -8 -165 -21 -254 -121 -260 -293 -2
-71 1 -102 18 -187 14 -69 71 -141 141 -177 51 -26 69 -30 151 -30 139 0 202
22 276 96 52 53 77 130 73 231 -2 83 -21 182 -35 191 -5 3 -7 9 -5 13 3 4 -12
29 -32 56 -39 51 -100 89 -162 100 -40 7 -119 12 -123 8z m56 -176 c9 -11 17
-29 18 -41 0 -12 3 -41 5 -66 3 -25 6 -58 7 -75 1 -16 6 -35 10 -42 4 -6 3
-14 -2 -18 -6 -3 -7 -15 -3 -28 10 -27 8 -65 -4 -77 -6 -6 -23 -12 -40 -16
-35 -7 -63 14 -65 49 -1 12 -2 33 -4 47 -19 143 -23 243 -12 258 5 6 6 12 1
12 -5 0 -3 4 3 8 23 15 68 9 86 -11z"/>
<path d="M4849 4276 c-2 -2 -42 -7 -89 -10 -47 -4 -103 -9 -125 -11 -81 -9
-171 -17 -220 -18 -27 -1 -53 -6 -56 -10 -6 -9 -4 -66 5 -102 2 -11 5 -25 5
-32 1 -6 10 -9 21 -6 16 4 20 0 21 -23 0 -16 2 -36 4 -44 1 -8 6 -53 9 -100 9
-112 16 -171 22 -191 3 -10 -5 -20 -20 -27 -23 -10 -24 -15 -19 -69 6 -66 19
-89 38 -73 9 8 15 8 20 0 3 -6 12 -7 18 -3 13 8 34 10 134 15 35 2 63 6 63 9
0 3 10 5 23 6 12 0 41 1 65 2 l43 1 -5 68 c-2 37 -5 69 -5 70 -1 2 -26 2 -56
0 -57 -3 -58 -3 -58 45 0 9 -3 17 -6 17 -9 0 -7 68 2 77 4 4 30 8 58 9 31 1
55 7 60 15 5 8 4 15 -2 17 -6 3 -6 9 2 18 8 10 8 14 0 14 -6 0 -10 3 -10 8 5
30 -2 34 -61 28 -70 -7 -70 -7 -73 79 l-2 58 38 3 c29 3 37 0 38 -14 2 -39 6
-62 12 -69 4 -3 7 -1 7 6 0 8 5 9 18 2 11 -6 24 -6 33 0 7 5 30 9 51 9 l36 0
-1 50 c-1 27 -4 50 -7 50 -3 0 -6 25 -7 57 -2 50 -12 80 -24 69z"/>
<path d="M3977 4194 c-4 -3 -133 -15 -155 -15 -21 1 -23 -2 -18 -42 3 -23 5
-57 5 -75 1 -18 5 -31 10 -27 17 10 23 -15 11 -51 -11 -33 -17 -58 -19 -76 -3
-23 -21 -1 -45 54 -24 53 -26 62 -12 70 8 5 13 15 10 22 -3 8 -7 32 -9 53 -1
21 -3 43 -4 50 -1 11 -67 11 -161 -1 -19 -2 -64 -7 -98 -10 -71 -7 -83 -11
-77 -29 4 -11 12 -73 14 -104 1 -7 7 -13 15 -13 17 0 43 -32 136 -163 84 -118
86 -122 89 -169 1 -32 -2 -38 -18 -38 -18 0 -19 -6 -16 -66 6 -78 8 -84 38
-79 12 2 48 6 79 9 32 2 62 8 68 11 5 3 10 1 10 -5 0 -6 5 -8 12 -4 12 7 40
11 95 13 l31 1 -2 58 c-4 69 -13 93 -35 90 -28 -5 -27 79 2 143 48 105 60 134
59 142 -1 4 3 7 8 7 6 0 9 3 9 8 -1 4 0 10 1 15 1 4 3 10 4 15 4 19 42 72 52
72 8 0 10 18 7 58 -3 31 -5 63 -6 70 0 9 -14 12 -44 10 -25 -2 -45 -4 -46 -4z"/>
<path d="M3027 4104 c-2 -2 -30 -6 -63 -8 -152 -13 -190 -17 -200 -20 -6 -3
-10 -17 -7 -33 8 -54 11 -78 12 -96 1 -14 6 -17 21 -12 13 4 20 2 21 -7 0 -7
2 -22 4 -33 6 -28 18 -182 19 -232 1 -24 3 -43 6 -43 3 0 6 -16 7 -35 3 -31 0
-35 -22 -35 -15 0 -23 -5 -20 -12 2 -7 6 -40 9 -73 3 -33 5 -61 5 -62 1 -1 15
1 32 4 17 2 52 6 77 8 26 2 47 4 47 5 0 1 25 3 55 5 85 6 163 14 180 18 87 21
152 57 182 100 12 18 27 35 33 39 5 4 6 8 2 8 -4 0 -2 10 5 23 15 28 18 53 18
151 -1 158 -56 267 -164 320 -42 20 -63 24 -152 24 -57 -1 -105 -2 -107 -4z
m116 -150 c18 -10 25 -34 29 -89 1 -16 6 -36 11 -42 6 -9 5 -13 -2 -13 -8 0
-10 -8 -5 -22 4 -13 9 -45 10 -73 2 -27 3 -50 4 -50 1 0 3 -10 4 -22 3 -26
-27 -63 -52 -64 -9 0 -25 -2 -34 -4 -11 -2 -18 3 -19 13 0 10 -2 31 -3 47 -15
143 -19 185 -22 220 -2 22 -5 49 -7 60 -10 45 38 67 86 39z"/>
<path d="M2470 4050 c-19 -3 -56 -6 -82 -5 -27 0 -48 -2 -48 -5 0 -3 -17 -6
-38 -7 -70 -4 -77 -9 -77 -50 0 -21 -3 -40 -6 -43 -4 -3 -9 -27 -13 -55 -6
-47 -8 -63 -21 -132 -11 -61 -18 -99 -21 -118 -1 -11 -3 -20 -4 -20 -2 0 -3
-11 -13 -90 -2 -16 -13 -34 -23 -40 -14 -7 -19 -21 -19 -48 0 -20 2 -37 5 -37
3 0 6 -12 5 -27 0 -27 1 -28 55 -27 82 2 156 10 170 19 9 5 11 4 6 -3 -5 -9
-1 -10 16 -3 13 4 29 6 37 3 10 -3 12 8 7 54 -3 33 -5 67 -6 76 0 12 -7 15
-26 12 -23 -4 -26 -2 -21 15 3 11 0 22 -7 25 -7 3 -7 5 2 5 7 1 10 6 7 11 -3
6 -3 10 2 11 10 1 49 7 86 14 19 3 27 0 27 -10 0 -8 3 -15 8 -15 4 0 8 -11 8
-25 1 -13 -1 -24 -5 -23 -3 0 -16 0 -28 -1 -20 -1 -21 -4 -11 -37 5 -20 7 -41
5 -47 -2 -7 -1 -22 4 -34 7 -18 14 -21 46 -19 21 2 76 7 123 11 47 5 94 9 105
11 11 1 33 3 48 3 18 1 26 5 21 12 -6 10 -10 42 -13 116 -1 16 -6 20 -21 16
-11 -3 -20 -1 -20 5 0 5 -8 27 -17 48 -9 22 -18 44 -19 49 -1 6 -23 64 -48
130 -26 66 -51 131 -56 145 -5 14 -15 39 -21 55 -7 17 -13 32 -13 35 -9 38
-39 51 -96 40z m-60 -263 c0 -10 4 -26 9 -35 4 -9 11 -31 14 -48 6 -30 5 -31
-31 -30 -20 1 -36 6 -35 12 3 14 15 126 16 143 1 21 27 -19 27 -42z"/>
<path d="M1977 4004 c-1 -2 -45 -6 -97 -10 -114 -8 -112 -8 -127 -17 -6 -4
-14 -3 -18 3 -4 6 -12 7 -18 3 -7 -4 -23 -8 -37 -9 -33 -2 -170 -15 -195 -19
-11 -1 -26 -3 -33 -4 -7 0 -11 -5 -8 -9 3 -5 6 -28 7 -53 2 -62 8 -81 25 -75
7 3 16 1 19 -3 6 -10 15 -75 20 -141 5 -59 15 -167 20 -207 3 -30 -3 -38 -27
-34 -11 2 -13 -43 -4 -99 2 -14 4 -30 5 -37 1 -14 154 -5 179 11 6 3 13 2 17
-4 4 -6 11 -8 16 -4 10 6 78 14 164 19 28 2 50 4 50 5 0 2 55 7 112 11 l42 2
-2 74 c-1 40 -5 73 -8 73 -4 0 -6 8 -6 18 0 9 -1 39 -2 65 l-1 48 -75 -4 c-42
-2 -78 -7 -82 -10 -3 -4 -11 -3 -17 3 -8 6 -16 2 -24 -11 -8 -12 -9 -19 -1
-19 5 0 8 -3 5 -8 -2 -4 -1 -26 4 -50 9 -50 -1 -58 -64 -57 l-39 0 -4 55 c-1
30 -5 60 -7 67 -7 17 15 31 45 29 25 -1 26 1 24 49 l-1 50 -39 0 c-38 0 -40 1
-42 35 -1 19 -5 47 -7 62 -6 32 2 39 55 43 33 3 40 0 44 -18 4 -20 12 -70 14
-91 1 -4 36 -5 79 -1 42 5 84 8 94 7 14 -1 16 11 15 79 -1 43 -4 79 -7 79 -3
0 -6 13 -6 30 -3 56 -13 79 -35 77 -11 -1 -21 -2 -22 -3z"/>
<path d="M1064 3921 c-4 -5 -35 -8 -119 -14 -23 -2 -47 -7 -54 -12 -10 -6 -12
-4 -6 6 8 12 6 12 -8 1 -9 -8 -20 -12 -24 -9 -4 2 -28 2 -52 -2 -37 -5 -45
-10 -46 -28 -1 -13 2 -23 7 -23 5 0 5 -8 0 -17 -13 -27 9 -79 31 -75 9 2 17
-2 18 -10 3 -44 9 -99 14 -143 3 -27 8 -77 11 -110 2 -33 5 -73 7 -90 2 -24
-2 -31 -20 -33 -17 -3 -20 -8 -17 -30 3 -15 6 -47 8 -72 1 -25 7 -44 12 -44
31 5 177 17 216 18 27 1 48 3 48 6 0 3 15 5 34 5 l34 -2 -4 66 c-2 36 -3 69
-4 73 0 4 -10 7 -22 6 -39 -2 -44 1 -42 29 0 14 -2 44 -6 65 -4 21 -5 38 -1
39 3 0 14 2 25 4 47 9 85 -35 82 -97 -1 -16 1 -28 4 -28 3 0 5 -19 4 -42 0
-24 2 -56 6 -73 5 -28 9 -30 54 -30 26 0 49 2 51 5 2 3 32 7 67 8 107 4 103 2
101 58 -4 76 -8 89 -30 92 -16 2 -22 13 -26 55 -7 54 -36 95 -73 102 -10 2
-20 4 -21 4 -1 1 13 16 31 35 19 18 36 49 39 67 8 45 0 121 -16 147 -5 6 -5
12 -2 12 9 0 -37 43 -66 62 -15 9 -35 17 -45 18 -89 4 -196 4 -200 1z m63
-150 c22 -2 38 -90 20 -114 -6 -9 -29 -19 -49 -22 -31 -5 -36 -3 -33 12 1 10
-2 26 -6 35 -6 10 -5 19 1 23 7 4 7 12 2 18 -4 7 -7 18 -6 25 1 6 2 16 3 20 0
5 13 8 29 6 15 -1 32 -2 39 -3z"/>
<path d="M6249 3636 c-2 -3 -38 -7 -79 -11 -118 -9 -172 -14 -215 -19 -71 -8
-138 -15 -210 -21 -106 -9 -104 -7 -98 -68 9 -93 9 -92 34 -92 17 0 23 -7 25
-25 1 -14 5 -54 8 -90 4 -36 8 -85 10 -110 2 -25 7 -78 11 -118 7 -70 7 -73
-15 -79 -20 -5 -22 -10 -16 -62 3 -31 5 -64 6 -75 0 -16 6 -17 73 -11 39 4 87
8 105 9 18 2 35 6 39 9 3 4 12 2 20 -4 7 -6 13 -7 13 -2 0 5 15 10 33 10 17 1
53 3 79 7 26 3 80 8 120 12 40 3 84 8 98 9 14 2 31 3 39 4 10 1 12 14 7 59 -3
31 -9 89 -12 127 -4 39 -8 77 -10 85 -1 8 -3 18 -3 23 -1 6 -106 3 -106 -3 0
-1 -18 -3 -40 -5 -22 -1 -45 -3 -52 -4 -6 0 -10 -12 -7 -28 10 -72 10 -114 1
-120 -18 -11 -96 -10 -100 1 -2 6 -3 21 -2 34 1 12 -1 22 -4 22 -12 0 -9 97 3
98 6 1 22 3 36 4 23 3 25 7 25 53 l-1 50 -42 0 c-23 0 -42 5 -43 10 -4 47 -10
92 -13 101 -9 23 14 38 63 40 42 2 51 0 52 -14 1 -9 2 -28 4 -42 1 -14 3 -34
3 -46 2 -19 7 -21 45 -17 23 2 56 5 73 7 16 1 36 6 42 10 7 4 12 2 12 -6 0
-10 2 -10 9 0 4 8 12 14 17 15 11 2 7 84 -11 212 -1 11 -3 30 -4 43 -1 20 -11
28 -22 18z"/>
<path d="M5494 3561 c-2 -3 -26 -6 -52 -7 -26 -1 -47 -3 -47 -4 0 -1 -18 -3
-40 -5 -89 -7 -158 -15 -161 -18 -2 -1 -6 -18 -9 -37 -3 -19 -11 -40 -17 -47
-8 -9 -7 -13 2 -13 10 0 10 -3 1 -14 -6 -8 -11 -18 -9 -22 2 -8 -14 -85 -29
-138 -6 -20 -45 55 -103 197 l-24 58 -66 -6 c-36 -3 -83 -7 -105 -9 -22 -3
-65 -7 -95 -10 -117 -12 -154 -17 -159 -21 -7 -8 -7 -55 0 -55 3 0 6 -8 6 -17
0 -71 3 -81 22 -76 10 3 21 1 24 -5 7 -10 19 -125 21 -184 0 -21 3 -38 6 -38
3 0 6 -24 7 -52 1 -29 4 -72 7 -96 4 -40 3 -43 -17 -40 -20 3 -22 -1 -21 -47
1 -27 4 -65 8 -82 6 -27 11 -32 29 -28 12 3 51 8 87 11 174 13 204 19 194 35
-5 9 -11 59 -13 118 -1 18 -5 22 -22 18 -23 -6 -28 2 -32 58 -1 22 -6 45 -10
52 -4 6 -3 15 3 18 7 4 7 11 2 18 -5 7 -8 19 -7 27 1 8 -1 37 -5 63 -5 33 -4
46 4 44 6 -3 10 -10 8 -16 -1 -6 3 -11 10 -11 6 0 8 -3 5 -7 -4 -3 -3 -11 2
-17 5 -6 29 -56 53 -111 112 -250 119 -263 147 -259 14 2 44 6 65 7 46 4 51
12 72 122 9 44 12 60 14 60 1 0 3 9 5 20 4 21 18 87 20 95 1 3 9 42 19 87 20
88 34 100 35 30 0 -23 2 -52 5 -65 3 -12 8 -58 11 -102 6 -77 5 -79 -16 -75
-20 4 -21 2 -15 -58 3 -34 5 -69 5 -78 1 -13 12 -16 61 -15 33 1 60 3 60 6 0
3 17 5 38 6 48 1 162 14 185 20 9 3 15 9 13 13 -3 4 -6 27 -7 52 -3 73 -8 86
-33 84 -12 -2 -23 2 -24 9 0 6 -3 38 -6 71 -4 33 -9 92 -12 130 -3 39 -9 97
-14 130 -8 63 1 91 27 80 12 -4 13 5 7 53 -4 31 -7 66 -6 78 1 19 -4 21 -54
20 -30 0 -57 -3 -60 -5z"/>
<path d="M4177 3444 c-1 -2 -18 -6 -37 -9 -49 -8 -101 -25 -130 -44 -44 -27
-79 -59 -73 -65 4 -3 1 -6 -5 -6 -15 0 -50 -78 -61 -133 -14 -77 -5 -183 23
-281 17 -56 82 -156 104 -156 6 0 12 -5 12 -11 0 -5 5 -7 10 -4 6 3 10 2 10
-3 0 -19 111 -40 198 -37 195 5 321 95 347 250 11 64 6 175 -11 240 -8 33 -16
66 -16 73 -1 6 -4 12 -7 12 -3 0 -12 14 -20 31 -12 28 -34 53 -85 96 -27 23
-113 45 -183 47 -40 2 -74 2 -76 0z m66 -173 c10 0 17 -9 17 -21 0 -11 4 -20
8 -20 4 0 7 -17 6 -37 -1 -21 1 -42 4 -48 3 -5 7 -25 8 -45 1 -19 5 -72 8
-118 9 -107 -11 -135 -79 -118 -37 9 -45 46 -61 279 -6 83 -4 100 10 116 9 10
27 17 39 16 12 -1 30 -3 40 -4z"/>
<path d="M3640 3385 c0 -6 -40 -10 -98 -11 -162 -1 -270 -50 -306 -138 -14
-34 -17 -61 -15 -140 0 -26 35 -91 62 -117 25 -24 113 -69 136 -69 13 0 49
-10 101 -28 8 -3 18 -5 21 -4 4 1 14 -7 24 -18 15 -16 15 -21 3 -38 -20 -29
-99 -20 -110 13 -3 9 -114 9 -163 0 -11 -2 -26 -4 -33 -4 -7 -1 -11 -4 -9 -9
3 -4 8 -43 12 -87 4 -44 11 -84 15 -88 4 -5 25 -12 46 -15 70 -12 329 -5 329
8 0 1 10 3 23 6 13 2 37 11 55 20 35 18 103 74 90 74 -4 0 -3 4 2 8 49 35 43
212 -10 267 -46 49 -90 68 -261 114 -51 14 -63 43 -28 66 15 10 24 11 24 4 0
-6 7 -9 15 -5 9 3 24 -3 34 -13 15 -15 30 -18 82 -15 35 2 73 6 84 8 11 2 23
5 27 5 7 1 2 103 -7 147 -5 24 -38 38 -105 46 -14 2 -28 7 -32 13 -5 7 -8 7
-8 0z"/>
<path d="M3040 3324 c0 -5 -26 -10 -58 -11 -31 -2 -66 -5 -77 -7 -11 -3 -24
-5 -28 -5 -10 -1 -4 -122 7 -139 4 -7 16 -12 27 -12 14 0 19 -7 20 -27 4 -67
7 -101 13 -143 9 -58 23 -71 -197 205 -54 67 -98 109 -105 99 -4 -5 -23 -10
-42 -10 -44 -2 -168 -14 -195 -19 -11 -2 -32 -4 -47 -4 -26 -1 -27 -2 -25 -61
1 -33 6 -60 10 -60 4 0 7 -8 5 -17 -2 -12 4 -17 21 -18 17 0 25 -6 26 -20 1
-11 5 -60 10 -110 4 -49 8 -100 8 -112 1 -13 3 -23 7 -23 3 0 6 -34 8 -75 2
-74 2 -75 -23 -75 -17 0 -23 -4 -19 -14 3 -8 7 -38 8 -68 3 -65 10 -78 39 -73
12 2 49 6 82 9 88 8 168 17 181 21 7 2 10 17 8 37 -2 18 -6 51 -8 73 -3 34 -7
40 -25 39 -11 -1 -22 5 -22 12 -2 23 -4 28 -12 41 -4 6 -3 14 3 18 6 4 7 11 4
17 -4 5 -8 29 -10 51 -2 23 -6 60 -9 82 -3 28 -1 35 5 25 5 -8 10 -11 10 -6 0
5 11 -7 23 -26 25 -35 59 -78 90 -110 9 -10 17 -21 17 -25 0 -5 17 -27 38 -50
20 -23 44 -50 52 -61 50 -66 83 -101 90 -97 4 3 39 7 76 10 104 8 154 14 164
20 4 3 7 20 5 38 -4 34 -12 112 -20 205 -3 31 -8 71 -10 87 -5 35 -16 171 -17
200 -1 38 2 46 20 43 18 -3 19 6 11 114 l-3 36 -47 -2 c-27 -1 -51 -5 -55 -9
-4 -4 -13 -2 -21 4 -7 6 -13 8 -13 3z"/>
<path d="M2035 3222 c-2 -3 -28 -6 -57 -8 -87 -6 -129 -12 -135 -18 -3 -3 -14
-1 -24 4 -12 7 -20 6 -24 -1 -4 -6 -13 -8 -20 -5 -12 4 -15 -10 -16 -66 0 -10
-3 -18 -7 -18 -4 0 -7 -12 -8 -27 0 -27 -9 -82 -20 -133 -3 -14 -7 -38 -9 -55
-4 -30 -17 -103 -21 -117 -1 -5 -2 -22 -3 -39 -1 -20 -5 -28 -13 -23 -7 4 -8
3 -4 -4 4 -7 4 -32 1 -57 -5 -32 -13 -46 -27 -51 -17 -5 -19 -12 -14 -62 3
-32 5 -65 6 -74 0 -15 9 -17 55 -15 30 1 55 4 55 7 0 3 21 6 48 7 26 1 70 4
97 6 28 3 56 5 64 6 9 1 10 5 4 14 -11 14 -11 27 0 45 5 6 4 12 -1 12 -6 0
-10 16 -10 36 0 40 -14 54 -43 47 -17 -5 -19 -1 -13 33 3 22 7 40 8 41 1 1 28
3 60 4 59 3 82 -10 71 -38 -2 -7 -1 -13 4 -13 4 0 8 -7 8 -15 0 -10 -4 -12
-10 -6 -6 6 -16 7 -28 1 -17 -10 -19 -50 -5 -115 3 -11 5 -26 5 -33 1 -8 10
-11 24 -7 12 2 49 7 82 10 33 3 85 8 115 11 88 9 124 12 138 13 8 1 10 6 6 13
-4 6 -8 30 -10 52 -1 23 -2 51 -3 63 -1 14 -9 23 -23 25 -16 2 -27 18 -43 63
-65 177 -88 234 -105 272 -11 24 -20 46 -20 50 0 11 -55 152 -63 159 -7 7 -66
12 -72 6z m-71 -307 c31 -106 31 -105 3 -105 -14 0 -32 -3 -40 -6 -16 -6 -16
34 2 181 2 20 19 -12 35 -70z"/>
<path d="M1268 3145 c-2 -1 -41 -6 -88 -10 -47 -4 -98 -9 -115 -10 -82 -8
-183 -17 -205 -19 -23 -2 -25 -5 -22 -52 1 -27 4 -58 6 -69 3 -11 5 -23 5 -27
1 -4 11 -8 24 -10 13 -2 23 -11 24 -23 1 -11 4 -45 8 -75 3 -30 7 -75 10 -100
9 -109 16 -167 20 -188 3 -17 -2 -23 -21 -28 -25 -6 -25 -9 -19 -68 7 -71 14
-98 24 -92 6 4 99 14 196 21 22 2 40 4 40 5 0 1 20 3 45 5 25 2 51 3 59 4 10
1 12 16 8 72 -3 39 -8 73 -12 77 -3 3 -18 6 -33 7 -24 0 -27 4 -29 40 -1 22
-4 55 -7 73 -5 34 -1 36 54 32 30 -2 49 -19 55 -49 6 -30 17 -148 19 -191 1
-35 23 -63 40 -53 4 3 20 7 35 8 14 1 63 6 109 10 123 10 117 8 115 41 -1 16
-4 49 -5 74 -2 27 -8 46 -15 46 -7 1 -19 2 -26 3 -7 0 -13 16 -14 34 -4 70
-19 102 -55 120 -18 9 -36 13 -40 11 -17 -11 -6 8 22 38 17 17 35 49 41 71 12
45 10 116 -4 135 -5 6 -7 12 -3 12 4 0 0 13 -9 29 -19 39 -71 77 -115 86 -38
8 -117 15 -122 10z m-37 -164 c32 -2 53 -107 25 -130 -20 -16 -75 -31 -81 -22
-2 5 -7 41 -11 82 l-6 75 29 -2 c15 -1 35 -3 44 -3z"/>
<path d="M6348 2864 c-5 -4 -146 -16 -210 -18 -27 0 -48 -5 -48 -10 0 -5 -6
-3 -14 3 -9 7 -17 8 -20 2 -3 -5 -26 -9 -51 -8 -51 1 -59 -4 -62 -41 -1 -15
-5 -43 -7 -62 -3 -19 -8 -55 -11 -80 -10 -93 -17 -136 -25 -167 -6 -23 -5 -33
3 -33 8 0 8 -3 2 -8 -5 -4 -11 -16 -12 -27 -3 -43 -12 -111 -17 -132 -5 -23
19 -41 28 -20 3 9 5 9 5 0 1 -7 6 -13 12 -13 5 0 8 4 5 8 -2 4 4 8 15 8 10 0
19 -4 19 -9 0 -5 7 -4 15 3 12 10 15 10 15 -1 0 -11 2 -11 10 1 6 10 10 11 10
3 0 -7 5 -13 11 -13 5 0 8 4 5 8 -3 5 1 9 9 9 8 0 15 -5 15 -10 0 -5 7 -4 15
3 8 7 15 8 15 3 0 -10 60 -10 78 1 7 4 12 2 12 -4 0 -6 5 -8 10 -5 6 4 7 12 3
18 -3 7 3 4 14 -5 22 -20 33 -23 33 -7 0 5 -5 7 -12 3 -6 -4 -8 -3 -5 4 4 5
16 8 27 5 11 -3 17 -9 14 -14 -3 -5 6 -5 19 0 16 6 28 6 35 -1 7 -7 14 -4 21
11 9 15 9 21 1 21 -6 0 -9 8 -6 18 3 9 8 35 11 57 2 22 7 51 10 65 2 13 6 39
7 57 1 18 5 33 8 33 3 0 5 20 5 45 0 25 2 45 6 45 4 0 7 15 7 33 0 17 4 50 8
72 4 22 8 52 8 68 1 15 3 27 6 27 3 0 6 12 6 28 1 23 -3 27 -27 28 -15 1 -30
0 -31 -2z"/>
<path d="M5710 2790 c-19 -3 -47 -5 -62 -5 -16 1 -28 -2 -28 -5 0 -3 -19 -6
-43 -6 -105 -4 -167 -9 -167 -15 0 -3 -17 -6 -37 -6 -83 -2 -122 -7 -116 -16
3 -5 -4 -4 -16 2 -16 9 -21 9 -21 -1 0 -9 -3 -9 -10 2 -5 8 -10 11 -10 5 0 -5
-10 -10 -22 -11 -86 -4 -125 -8 -135 -17 -9 -6 -13 -6 -13 2 0 7 -5 9 -11 5
-6 -3 -34 -8 -62 -10 -60 -5 -133 -12 -197 -19 -25 -3 -64 -6 -87 -8 -24 -1
-43 -6 -43 -11 0 -5 -6 -3 -14 3 -8 7 -17 8 -20 3 -3 -5 -23 -8 -46 -8 -22 1
-40 -1 -40 -4 0 -4 -22 -6 -50 -4 -35 1 -48 -2 -43 -10 4 -6 -1 -5 -10 3 -13
10 -17 10 -17 1 0 -7 -6 -10 -13 -7 -7 3 -32 2 -55 -3 -29 -5 -42 -4 -42 4 0
7 -3 7 -8 -1 -4 -7 -16 -10 -27 -9 -11 2 -26 -1 -32 -7 -9 -6 -13 -6 -13 2 0
7 -5 9 -12 5 -7 -4 -24 -9 -38 -10 -14 -1 -54 -5 -90 -9 -36 -4 -85 -8 -110
-11 -48 -4 -111 -10 -200 -19 -30 -4 -77 -8 -105 -11 -27 -2 -75 -7 -105 -10
-30 -2 -75 -6 -100 -8 -25 -2 -45 -5 -45 -6 0 -1 -20 -4 -45 -6 -99 -7 -165
-13 -165 -14 0 -3 -46 -8 -130 -14 -44 -3 -91 -8 -105 -10 -14 -2 -54 -7 -90
-10 -36 -4 -87 -9 -115 -11 -27 -3 -79 -8 -115 -11 -36 -2 -78 -7 -95 -9 -52
-8 -158 -18 -202 -19 -24 0 -43 -3 -43 -6 0 -3 -17 -5 -37 -5 -21 1 -42 -1
-47 -3 -9 -5 -67 -10 -158 -14 -32 -2 -58 -5 -58 -8 0 -5 -15 -7 -152 -13 -32
-1 -58 -4 -58 -7 0 -3 -15 -6 -32 -6 -49 -2 -241 -20 -245 -24 -2 -1 -20 -2
-40 -2 -21 0 -44 -5 -51 -11 -8 -6 -12 -6 -12 1 0 7 -10 8 -30 2 -16 -5 -41
-7 -55 -6 -14 2 -25 0 -25 -3 0 -4 -17 -7 -37 -8 -128 -6 -163 -9 -163 -13 0
-5 -58 -10 -113 -10 -15 0 -27 -5 -27 -12 0 -9 -3 -8 -10 2 -8 13 -10 12 -10
-3 0 -12 -4 -16 -12 -11 -8 5 -7 0 2 -10 8 -11 13 -30 12 -43 -2 -13 2 -31 8
-39 7 -7 9 -14 5 -14 -4 0 -13 7 -19 16 -10 13 -12 13 -12 -5 0 -11 4 -17 8
-15 13 8 9 -11 -4 -26 -11 -12 -10 -12 3 -2 12 9 19 9 29 -1 12 -10 12 -9 3 3
-10 13 -8 15 11 15 12 -1 27 -5 34 -9 7 -4 12 -3 12 1 0 5 8 9 19 9 12 0 17
-6 14 -16 -4 -13 -3 -13 9 1 8 10 24 14 41 12 21 -3 27 0 22 9 -4 7 0 5 8 -5
15 -18 15 -18 20 0 3 13 5 12 7 -7 1 -23 2 -23 10 -5 6 14 9 15 10 5 1 -10 4
-9 10 5 8 18 9 18 9 -5 1 -19 3 -22 10 -10 6 8 7 18 5 22 -9 15 3 8 17 -9 12
-14 12 -16 0 -8 -10 5 -12 4 -7 -4 4 -6 12 -9 17 -5 5 3 7 10 4 15 -9 13 9 11
23 -3 9 -9 12 -8 13 8 0 10 3 13 6 7 6 -16 35 -17 51 -1 9 9 11 6 7 -13 -4
-20 -2 -22 8 -9 7 8 28 15 47 16 19 0 50 3 68 6 30 5 32 3 26 -16 -6 -19 -5
-19 15 4 13 14 20 20 17 13 -9 -18 17 -22 37 -5 15 14 17 13 17 -4 0 -15 2
-16 9 -5 5 8 17 16 25 17 9 1 14 -2 11 -7 -4 -5 1 -6 9 -3 9 3 13 11 9 18 -4
6 1 5 10 -3 9 -7 14 -18 10 -25 -4 -6 0 -6 9 2 9 7 28 11 42 8 17 -3 29 1 36
12 8 15 9 15 10 -2 0 -18 1 -18 18 -3 11 10 22 13 32 7 8 -5 21 -5 29 -1 21
11 43 2 34 -12 -3 -7 4 -3 16 7 16 15 20 16 16 5 -4 -10 0 -16 9 -16 8 0 12 6
10 12 -3 8 5 10 27 7 23 -3 28 -7 18 -14 -11 -7 -9 -8 4 -4 10 3 21 6 23 6 3
0 3 4 0 8 -3 5 2 9 10 9 8 0 13 -6 10 -13 -3 -8 0 -11 9 -7 8 3 12 10 8 17 -4
6 6 3 21 -8 24 -15 28 -16 23 -3 -4 12 -2 14 11 10 9 -4 20 -11 24 -17 5 -7 8
-4 8 6 0 9 5 20 12 24 6 4 9 3 6 -2 -3 -5 0 -15 8 -22 12 -11 14 -10 14 3 0
18 20 21 20 3 0 -8 5 -6 10 4 11 18 24 18 59 -1 22 -12 23 -12 17 4 -5 14 -4
15 7 7 10 -9 17 -8 27 1 10 9 11 9 6 0 -4 -8 -1 -13 8 -13 8 0 17 6 19 13 4
10 6 10 6 0 1 -7 8 -13 17 -13 8 0 12 5 8 11 -3 6 6 3 22 -7 21 -14 26 -14 17
-3 -10 12 -8 15 8 15 14 0 18 -5 14 -21 -5 -16 -3 -16 8 4 12 21 15 21 21 6 5
-13 9 -15 20 -6 18 15 58 23 51 10 -4 -5 -1 -9 4 -9 6 0 11 5 11 11 0 6 7 3
16 -5 19 -20 31 -21 15 -2 -9 11 -9 16 0 22 7 4 9 3 6 -3 -4 -6 0 -13 8 -17 8
-3 15 -2 15 3 0 4 7 8 15 8 8 0 12 -3 10 -7 -2 -4 11 -6 29 -6 19 1 32 4 30 8
-3 5 6 7 20 6 13 -1 22 -6 20 -10 -10 -16 9 -8 23 10 8 11 12 12 11 3 -2 -7 3
-16 11 -19 10 -3 11 0 5 9 -6 11 -5 12 8 2 8 -7 18 -10 22 -6 12 12 54 14 61
3 5 -8 13 -5 26 6 19 17 20 17 14 -2 -6 -18 -6 -18 8 -1 12 15 19 16 36 8 26
-14 34 -14 26 2 -4 6 1 3 9 -7 16 -20 16 -20 17 0 0 11 3 14 6 6 4 -10 8 -9
19 5 12 17 13 16 9 -7 -4 -23 -3 -24 10 -7 13 18 13 18 18 0 4 -16 5 -16 6 -1
1 12 6 15 17 11 9 -3 20 0 26 8 8 11 9 10 4 -3 -3 -10 -1 -18 4 -18 6 0 10 3
10 8 0 14 50 7 51 -8 0 -8 4 -5 10 8 7 19 29 23 29 6 0 -3 -4 -2 -10 1 -6 3
-7 -1 -3 -10 3 -9 8 -12 12 -7 3 6 25 9 48 9 22 -1 39 1 37 4 -2 4 3 10 12 13
8 3 13 2 10 -3 -3 -5 8 -11 24 -13 21 -3 27 -1 20 7 -6 7 -2 11 11 11 13 0 18
-5 14 -16 -3 -10 -1 -10 9 3 10 13 15 15 18 5 4 -11 8 -10 21 1 11 9 17 10 17
2 0 -6 7 -11 16 -11 8 0 12 5 9 10 -3 6 -2 10 4 10 5 0 11 -5 13 -12 3 -7 11
-9 24 -3 28 12 45 14 39 5 -3 -4 6 -7 20 -6 15 0 25 7 25 16 0 13 2 13 9 0 6
-8 7 -19 3 -25 -3 -5 1 -4 9 2 12 10 18 10 28 0 10 -9 11 -9 6 4 -4 10 0 16
10 16 8 0 15 -4 15 -9 0 -5 5 -6 10 -3 6 4 8 12 4 18 -3 7 1 4 9 -6 14 -17 15
-17 22 0 6 17 7 17 21 -1 8 -11 14 -14 14 -8 0 7 5 12 11 12 5 0 7 -6 3 -12
-6 -10 -4 -10 7 0 14 13 33 17 26 5 -3 -5 10 -8 28 -8 18 0 31 3 29 6 -2 4 3
10 12 13 8 3 13 2 10 -3 -3 -5 1 -12 10 -15 8 -3 12 -2 9 4 -3 6 -1 10 5 10 6
0 8 5 4 12 -4 7 -3 8 5 4 6 -4 9 -11 6 -16 -3 -4 2 -10 10 -14 8 -3 17 0 21 6
5 7 2 8 -6 3 -9 -5 -11 -4 -6 3 4 8 15 8 31 2 18 -7 25 -6 25 3 0 8 4 7 10 -3
8 -12 10 -12 10 -1 0 11 5 10 24 -2 23 -15 25 -15 41 6 9 12 13 17 11 11 -3
-7 1 -14 9 -18 10 -3 15 1 16 12 1 11 4 8 9 -8 5 -15 8 -18 9 -8 1 11 7 15 21
11 11 -3 17 -10 14 -17 -3 -6 3 -1 14 11 l19 22 12 -22 c7 -14 10 -16 8 -5 -1
9 3 17 8 17 6 0 9 -8 7 -17 -1 -10 4 -7 12 8 9 14 15 19 16 13 0 -7 6 -13 14
-13 8 0 17 6 19 13 3 7 6 5 6 -6 1 -14 5 -16 21 -7 16 9 18 8 14 -5 -5 -13 -2
-14 20 -5 33 12 97 10 115 -4 12 -9 13 -7 7 9 -4 11 -4 16 0 12 4 -4 14 -1 22
6 9 6 13 7 10 2 -4 -6 -3 -17 3 -25 7 -12 9 -12 9 3 0 15 3 16 22 6 19 -10 20
-9 14 7 -7 18 -6 18 10 2 16 -16 18 -16 31 0 13 15 13 15 8 -8 -5 -18 -4 -21
3 -11 6 8 17 11 27 7 12 -4 16 -2 12 7 -6 16 28 16 44 0 14 -14 41 -5 32 11
-3 6 2 3 13 -6 14 -13 23 -15 31 -7 7 7 22 8 46 1 31 -9 35 -8 30 6 -5 14 -3
15 8 5 7 -7 19 -13 27 -13 8 0 10 5 6 13 -5 8 -2 8 9 -2 14 -11 17 -11 17 0 0
11 2 11 10 -1 8 -13 10 -13 10 -1 0 11 4 9 15 -5 9 -12 13 -13 10 -4 -4 13 4
16 42 15 27 0 51 -4 55 -10 5 -7 8 -6 8 1 0 6 7 11 15 11 10 0 14 -6 10 -16
-4 -13 -2 -12 9 2 15 19 31 23 20 5 -5 -9 -2 -9 9 1 9 7 17 10 17 6 0 -4 6 -2
14 4 11 9 16 9 22 0 4 -8 3 -9 -4 -5 -7 4 -12 2 -12 -3 0 -14 17 -14 25 0 5 6
12 4 21 -8 11 -15 13 -15 8 -2 -6 20 11 34 22 18 5 -8 3 -9 -6 -4 -9 6 -11 4
-5 -4 5 -9 10 -10 18 -2 6 6 18 11 27 11 12 0 13 -2 1 -9 -10 -7 -7 -9 12 -8
17 1 22 6 16 13 -5 7 -3 11 6 11 8 0 15 -7 15 -16 0 -12 2 -13 9 -3 7 12 53
16 111 9 14 -2 31 1 39 7 9 7 17 5 28 -9 12 -16 14 -16 10 -3 -5 13 -2 15 11
11 9 -3 22 -10 29 -15 7 -6 15 -3 21 8 9 17 11 17 36 1 24 -16 25 -16 19 0 -6
16 -5 17 12 3 17 -14 18 -13 11 4 -7 20 -7 20 14 1 12 -11 21 -15 20 -10 -5
24 1 27 15 9 8 -10 15 -14 14 -9 -1 6 0 12 1 15 7 19 17 101 25 200 2 30 4 55
5 55 1 0 10 102 13 150 1 17 6 36 10 43 5 7 3 12 -4 12 -7 0 -8 4 -2 13 5 6 9
23 9 36 -1 27 -16 31 -76 21z m-135 -531 c11 -16 1 -19 -13 -3 -7 8 -8 14 -3
14 5 0 13 -5 16 -11z m-1725 -25 c0 -8 -19 -13 -24 -6 -3 5 1 9 9 9 8 0 15 -2
15 -3z m-600 -10 c0 -8 -19 -13 -24 -6 -3 5 1 9 9 9 8 0 15 -2 15 -3z m-1700
-38 c0 -3 -4 -8 -10 -11 -5 -3 -10 -1 -10 4 0 6 5 11 10 11 6 0 10 -2 10 -4z"/>
<path d="M4675 2230 c-3 -5 -1 -10 4 -10 6 0 11 5 11 10 0 6 -2 10 -4 10 -3 0
-8 -4 -11 -10z"/>
<path d="M4999 2223 c-13 -16 -12 -17 4 -4 9 7 17 15 17 17 0 8 -8 3 -21 -13z"/>
<path d="M2190 2189 c0 -4 6 -9 13 -12 8 -3 14 0 14 7 0 7 -6 13 -14 13 -7 0
-13 -4 -13 -8z"/>
<path d="M1775 2180 c-3 -5 -1 -10 4 -10 6 0 11 5 11 10 0 6 -2 10 -4 10 -3 0
-8 -4 -11 -10z"/>
</g>
</svg>
